<svg width="256" height="256" viewBox="0 0 256 256" xmlns="http://www.w3.org/2000/svg">
  <rect x="8" y="8" width="240" height="240" rx="44" fill="#22272E"/>
  <g fill="#478CBF">
    <rect x="36"  y="36"  width="56"  height="52" rx="6"/>
    <rect x="98"  y="36"  width="40"  height="52" rx="6"/>
    <rect x="144" y="36"  width="72"  height="52" rx="6"/>
    <rect x="36"  y="94"  width="72"  height="40" rx="6"/>
    <rect x="114" y="94"  width="102" height="40" rx="6"/>
    <rect x="36"  y="140" width="44"  height="44" rx="6"/>
    <rect x="86"  y="140" width="60"  height="44" rx="6"/>
    <rect x="152" y="140" width="64"  height="44" rx="6"/>
    <rect x="36"  y="190" width="100" height="30" rx="6"/>
    <rect x="142" y="190" width="74"  height="30" rx="6"/>
  </g>
  <circle cx="128" cy="128" r="50" fill="#22272E"/>
  <circle cx="128" cy="128" r="50" fill="none" stroke="#478CBF" stroke-width="8"/>
  <path d="M112 103 L112 153 L160 128 Z" fill="#478CBF"/>
</svg>
